<svg xmlns="http://www.w3.org/2000/svg" width="188.714" height="86.727" viewBox="0 0 188.714 86.727">
  <g id="logo-icon" transform="translate(-130.643 555)">
    <path id="Path_10878" data-name="Path 10878" d="M263.78,141.46c-.75,3.77-2.45,7.79-6.75,9.62-5.09,2.17-9.9,1.31-14-2.77q-22-22-44.12-44c-6.9-6.85-10.53-7.09-18.91-1.54-5.22,3.45-10.47,3.77-15.15-.81s-5.15-10.4-1.31-15.1c5.31-6.5,11.58-12.28,17.88-17.88,5.6-5,10.8-3.5,15.95,1.72,15.27,15.51,30.84,30.73,46.32,46q8.06,8,16.27,15.81A11.75,11.75,0,0,1,263.78,141.46Z" transform="translate(18.898 -620.653)" fill="#b77d2f"/>
    <path id="Path_10879" data-name="Path 10879" d="M233.58,66c7.32-1.34,10.3,5.54,15,9.23,2.22,1.72,3.86,4.21,6.34,5.88,4.79,3.21,8.85,2.94,12.82-1.33,3.28-3.54,6.84-6.83,10.23-10.27,4.53-4.6,10.15-4.47,15.54-2.78,7.23,2.25,9.3,10.75,3.91,16.35-9.7,10.09-19.8,19.81-29.81,29.6-4.31,4.22-9.42,4.41-13.64.47-10.41-9.74-20.53-19.8-30.48-30a9.47,9.47,0,0,1-1.87-11.39C224.05,67,228.18,65.64,233.58,66Z" transform="translate(18.898 -620.653)" fill="#b77d2f"/>
    <path id="Path_10880" data-name="Path 10880" d="M180.31,152c-6,.42-9.87-.9-13.07-4.35-2.46-2.65-5.17-5.08-7.7-7.67-6-6.23-10.14-6.34-16.45-.3-3.07,2.94-6,6-9.08,9-4.6,4.54-14.88,5-19.23.83-4.74-4.52-3.9-10.62,2.33-16.85,8.53-8.54,17-17.14,25.61-25.6,6.33-6.24,11.16-6.28,17.44-.14,8.79,8.62,17.36,17.47,26.23,26,4,3.89,6.2,8.14,4,13.54C188.39,151.59,183.73,152.18,180.31,152Z" transform="translate(18.898 -620.653)" fill="#b77d2f"/>
  </g>
</svg>
