<svg xmlns="http://www.w3.org/2000/svg" width="188.714" height="128.097" viewBox="0 0 188.714 128.097">
  <g id="logo-intro" transform="translate(-302.255 -1816.653)">
    <path id="Path_10871" data-name="Path 10871" d="M138.17,180.64c-2.63,3.58-5.22,7.2-7.89,10.75-2.23,3-3.75,3-6,.09-2.71-3.54-5.31-7.17-8.31-11.24-.89,3.59-.29,6.75-.51,9.85-.1,1.31.83,3.28-1.68,3.36-2.85.09-1.86-2.12-1.89-3.51-.1-4.48-.1-9,0-13.44,0-1.1-.67-2.67,1-3.12a3.28,3.28,0,0,1,3.79,1.6c2.62,3.8,5.41,7.47,8.15,11.19.78,1.07,1.61,2.11,2.64,3.44,3.58-4.91,6.95-9.48,10.25-14.1,1-1.4,2-2.78,3.92-2.1s.88,2.36.91,3.57c.1,4.61,0,9.23,0,13.84,0,1.4.18,2.8-2,2.68-2-.12-1.53-1.55-1.55-2.68v-10Z" transform="translate(190.51 1751)" fill="#fff"/>
    <path id="Path_10872" data-name="Path 10872" d="M296.09,188.27c0-4.4-.07-8,0-11.64,0-1.28-.84-3.38,1.72-3.27s1.49,2.19,1.52,3.44c.12,4.48.08,9,0,13.45,0,1,.55,2.36-.6,3-1.33.73-2.25-.52-3.2-1.21q-8.25-6-16.48-12c-.72-.51-1.37-1.61-2.44-1.1s-.6,1.68-.62,2.55c-.06,3.26,0,6.52,0,9.78,0,1.18-.07,2.19-1.65,2.2s-1.71-1-1.7-2.17c0-5.3-.08-10.6,0-15.89.06-2.51,2-3,4.64-1.05,5.5,4,10.91,8.09,16.35,12.14C294.28,186.94,294.82,187.33,296.09,188.27Z" transform="translate(190.51 1751)" fill="#fff"/>
    <path id="Path_10873" data-name="Path 10873" d="M199.19,189.17c3.16-4.86,6-9.27,8.89-13.63.64-1,1.08-2.29,2.55-2.4.9-.07,2-.57,2.61.39.5.8-.35,1.41-.8,2.08C209,180.76,205.61,186,202.1,191.1c-2.34,3.42-3.76,3.45-6.07.11-3.52-5.12-6.87-10.35-10.34-15.49-.45-.68-1.25-1.24-.64-2.1.8-1.13,1.61,0,2.45.08,1.58.19,2.25,1.24,3,2.38C193.29,180.33,196.13,184.56,199.19,189.17Z" transform="translate(190.51 1751)" fill="#fff"/>
    <path id="Path_10874" data-name="Path 10874" d="M251.17,181.92c2.45,0,4.91-.13,7.35.05,1.26.09,3.45-1.07,3.56,1.34.13,2.56-2.14,1.47-3.37,1.51-4.21.13-8.44.16-12.65,0-2.43-.09-2.85.89-2.93,3.11-.09,2.52,1.17,2.55,3,2.52q6.53-.09,13.06,0c1.2,0,3-.69,3,1.6,0,2-1.65,1.42-2.75,1.43-5.71,0-11.43-.06-17.14.06-2.11,0-2.75-.62-2.83-2.77-.31-8.85-.39-8.85,8.51-8.85Z" transform="translate(190.51 1751)" fill="#fff"/>
    <path id="Path_10875" data-name="Path 10875" d="M181.65,193.1c-2.83.88-4.38.17-5.72-2.13-2.58-4.44-5.52-8.66-8.34-13-6.05,4-6,13.71-13.84,15.78l-1-.84c4.12-6.16,8.21-12.34,12.36-18.47,1.17-1.72,2.82-1.87,4-.16C173.36,180.46,177.44,186.75,181.65,193.1Z" transform="translate(190.51 1751)" fill="#fff"/>
    <path id="Path_10876" data-name="Path 10876" d="M223.7,183.45v-8.11c0-1.29.37-2,1.82-2.05,1.62-.06,2.1.64,2.08,2.16-.05,5.27,0,10.54,0,15.81,0,1.44-.31,2.26-2,2.25s-1.93-1-1.91-2.36C223.74,188.58,223.71,186,223.7,183.45Z" transform="translate(190.51 1751)" fill="#fff"/>
    <path id="Path_10877" data-name="Path 10877" d="M250.91,173.3h9c1.1,0,2.27-.13,2.28,1.52s-1.12,1.57-2.25,1.57H241.57c-1.22,0-2.2-.2-2.09-1.74.1-1.35,1.08-1.35,2.06-1.35Z" transform="translate(190.51 1751)" fill="#fff"/>
    <path id="Path_10878" data-name="Path 10878" d="M263.78,141.46c-.75,3.77-2.45,7.79-6.75,9.62-5.09,2.17-9.9,1.31-14-2.77q-22-22-44.12-44c-6.9-6.85-10.53-7.09-18.91-1.54-5.22,3.45-10.47,3.77-15.15-.81s-5.15-10.4-1.31-15.1c5.31-6.5,11.58-12.28,17.88-17.88,5.6-5,10.8-3.5,15.95,1.72,15.27,15.51,30.84,30.73,46.32,46q8.06,8,16.27,15.81A11.75,11.75,0,0,1,263.78,141.46Z" transform="translate(190.51 1751)" fill="#fff"/>
    <path id="Path_10879" data-name="Path 10879" d="M233.58,66c7.32-1.34,10.3,5.54,15,9.23,2.22,1.72,3.86,4.21,6.34,5.88,4.79,3.21,8.85,2.94,12.82-1.33,3.28-3.54,6.84-6.83,10.23-10.27,4.53-4.6,10.15-4.47,15.54-2.78,7.23,2.25,9.3,10.75,3.91,16.35-9.7,10.09-19.8,19.81-29.81,29.6-4.31,4.22-9.42,4.41-13.64.47-10.41-9.74-20.53-19.8-30.48-30a9.47,9.47,0,0,1-1.87-11.39C224.05,67,228.18,65.64,233.58,66Z" transform="translate(190.51 1751)" fill="#fff"/>
    <path id="Path_10880" data-name="Path 10880" d="M180.31,152c-6,.42-9.87-.9-13.07-4.35-2.46-2.65-5.17-5.08-7.7-7.67-6-6.23-10.14-6.34-16.45-.3-3.07,2.94-6,6-9.08,9-4.6,4.54-14.88,5-19.23.83-4.74-4.52-3.9-10.62,2.33-16.85,8.53-8.54,17-17.14,25.61-25.6,6.33-6.24,11.16-6.28,17.44-.14,8.79,8.62,17.36,17.47,26.23,26,4,3.89,6.2,8.14,4,13.54C188.39,151.59,183.73,152.18,180.31,152Z" transform="translate(190.51 1751)" fill="#fff"/>
  </g>
</svg>
