<svg xmlns="http://www.w3.org/2000/svg" width="19.5" height="19.499" viewBox="0 0 19.5 19.499">
  <g id="close" transform="translate(-263.25 -95.501)">
    <path id="Union_9" data-name="Union 9" d="M-965.926,19.255l-8.324-8.324-8.323,8.324a.836.836,0,0,1-1.181,0,.834.834,0,0,1,0-1.181l8.324-8.324-8.324-8.324a.834.834,0,0,1,0-1.181.836.836,0,0,1,1.181,0l8.323,8.324,8.324-8.324a.835.835,0,0,1,1.18,0,.834.834,0,0,1,0,1.181l-8.323,8.324,8.323,8.324a.834.834,0,0,1,0,1.181.832.832,0,0,1-.59.244A.832.832,0,0,1-965.926,19.255Z" transform="translate(1247.25 95.501)" fill="#fff"/>
  </g>
</svg>
