<svg xmlns="http://www.w3.org/2000/svg" width="25.055" height="22" viewBox="0 0 25.055 22">
  <g id="devices" transform="translate(-40.5 -332)">
    <path id="Union_15" data-name="Union 15" d="M-977.583,22a.916.916,0,0,1-.916-.916.917.917,0,0,1,.916-.917h2.138V16.5h-6.416A2.139,2.139,0,0,1-984,14.362V2.138A2.139,2.139,0,0,1-981.861,0h20.778a2.139,2.139,0,0,1,2.138,2.138V14.362a2.139,2.139,0,0,1-2.138,2.138H-967.5v3.666h2.138a.917.917,0,0,1,.916.917.916.916,0,0,1-.916.916Zm3.972-1.834h4.278V16.5h-4.278Zm12.528-5.5a.306.306,0,0,0,.306-.3V2.138a.306.306,0,0,0-.306-.3h-20.778a.306.306,0,0,0-.306.3V14.362a.306.306,0,0,0,.306.3h20.778Z" transform="translate(1024.5 332)" fill="#fff"/>
  </g>
</svg>
