<svg xmlns="http://www.w3.org/2000/svg" width="29" height="29" viewBox="0 0 29 29">
  <g id="fan" transform="translate(-373.11 -724.875)">
    <path id="Union_6" data-name="Union 6" d="M6.745,21.244a7.735,7.735,0,0,1,2.529-5.732H1.011A1.015,1.015,0,0,1,0,14.5,7.758,7.758,0,0,1,13.488,9.273V1.011A1.015,1.015,0,0,1,14.5,0a7.757,7.757,0,0,1,5.227,13.488h8.263A1.015,1.015,0,0,1,29,14.5a7.758,7.758,0,0,1-13.488,5.227v8.262A1.016,1.016,0,0,1,14.5,29,7.752,7.752,0,0,1,6.745,21.244Zm2.022,0a5.727,5.727,0,0,0,4.721,5.639V15.605A5.727,5.727,0,0,0,8.767,21.244Zm12.477-1.011a5.734,5.734,0,0,0,5.644-4.721H15.6A5.734,5.734,0,0,0,21.244,20.233ZM2.112,13.488H13.4a5.734,5.734,0,0,0-11.287,0Zm13.4-.095a5.727,5.727,0,0,0,0-11.276Z" transform="translate(373.11 724.875)" fill="#b77d2f"/>
  </g>
</svg>
