<svg xmlns="http://www.w3.org/2000/svg" width="23.997" height="23.997" viewBox="0 0 23.997 23.997">
  <g id="help" transform="translate(-41.5 -625.5)">
    <path id="Union_14" data-name="Union 14" d="M-984,11.5A11.511,11.511,0,0,1-972.5,0,11.514,11.514,0,0,1-961,11.5,11.514,11.514,0,0,1-972.5,23,11.511,11.511,0,0,1-984,11.5Zm1.724,0a9.785,9.785,0,0,0,9.774,9.774,9.783,9.783,0,0,0,9.774-9.774A9.783,9.783,0,0,0-972.5,1.724,9.785,9.785,0,0,0-982.275,11.5Zm8.584,6.337a.937.937,0,0,1-.241-.662.967.967,0,0,1,.241-.67.91.91,0,0,1,.716-.271.923.923,0,0,1,.721.271.958.958,0,0,1,.246.67.929.929,0,0,1-.246.662.944.944,0,0,1-.721.261A.931.931,0,0,1-973.691,17.835Zm-.171-3.453a5.263,5.263,0,0,1,.237-1.65,4.224,4.224,0,0,1,.9-1.343l1.151-1.184a2.656,2.656,0,0,0,.738-1.789,2.041,2.041,0,0,0-.483-1.443,1.821,1.821,0,0,0-1.406-.522,2.12,2.12,0,0,0-1.442.474,1.6,1.6,0,0,0-.544,1.274h-1.626a2.959,2.959,0,0,1,1.015-2.3,3.8,3.8,0,0,1,2.6-.875,3.584,3.584,0,0,1,2.588.891,3.231,3.231,0,0,1,.927,2.444,4.419,4.419,0,0,1-1.424,3.028l-.958.948a2.952,2.952,0,0,0-.642,2.045Z" transform="translate(1026 626)" fill="#fff" stroke="rgba(0,0,0,0)" stroke-miterlimit="10" stroke-width="1"/>
  </g>
</svg>
