<svg xmlns="http://www.w3.org/2000/svg" width="26.096" height="30.625" viewBox="0 0 26.096 30.625">
  <g id="light" transform="translate(-167.75 -724.25)">
    <path id="Union_8" data-name="Union 8" d="M-481.994,30.625a1.834,1.834,0,0,1-1.857-1.638l-.451-5.148A12.474,12.474,0,0,1-492,12.463C-492,5.584-486.159,0-478.952,0S-465.9,5.584-465.9,12.463a12.474,12.474,0,0,1-7.7,11.375l-.449,5.148a1.835,1.835,0,0,1-1.857,1.638Zm.342-2.137h5.4l.377-4.315h-6.15Zm-8.111-16.025a10.344,10.344,0,0,0,6.733,9.572h8.155a10.344,10.344,0,0,0,6.733-9.572,10.58,10.58,0,0,0-10.81-10.326A10.581,10.581,0,0,0-489.763,12.463Z" transform="translate(659.75 724.25)" fill="#b77d2f"/>
  </g>
</svg>
