<svg xmlns="http://www.w3.org/2000/svg" width="24.113" height="23" viewBox="0 0 24.113 23">
  <g id="manage-users" transform="translate(-40.5 -257)">
    <path id="Union_11" data-name="Union 11" d="M-984,18.73c0-4.3,6.9-4.3,9.162-4.3,3.933,0,9.163.442,9.163,4.274,0,4.294-6.9,4.294-9.163,4.294C-977.342,23-984,23-984,18.73Zm1.81,0c0,1.633,2.474,2.46,7.353,2.46s7.353-.836,7.353-2.484-2.474-2.465-7.353-2.465C-978.192,16.241-982.19,16.673-982.19,18.73Zm18.942.553a.9.9,0,0,1,.526-1.167c1.025-.389,1.025-.864,1.025-1.066,0-.684-.81-1.152-2.407-1.39a.908.908,0,0,1-.762-1.03.919.919,0,0,1,1.03-.763c3.266.489,3.951,2,3.951,3.183a2.885,2.885,0,0,1-2.194,2.758.923.923,0,0,1-.322.059A.906.906,0,0,1-963.248,19.283ZM-974.837,12.4a6.205,6.205,0,0,1-6.2-6.2,6.206,6.206,0,0,1,6.2-6.2,6.205,6.205,0,0,1,6.2,6.2,6.131,6.131,0,0,1-1.794,4.371A6.131,6.131,0,0,1-974.8,12.4Zm-4.389-6.2a4.392,4.392,0,0,0,4.389,4.386h.038a4.333,4.333,0,0,0,3.081-1.29A4.329,4.329,0,0,0-970.45,6.2a4.393,4.393,0,0,0-4.387-4.391A4.393,4.393,0,0,0-979.226,6.2Zm11.809,4.044a.905.905,0,0,1,.77-1.022A3.089,3.089,0,0,0-964,6.179a3.064,3.064,0,0,0-2.574-3.035.905.905,0,0,1-.747-1.04.907.907,0,0,1,1.04-.747,4.867,4.867,0,0,1,4.092,4.823,4.909,4.909,0,0,1-4.2,4.834.968.968,0,0,1-.126.009A.906.906,0,0,1-967.417,10.242Z" transform="translate(1024.5 257)" fill="#fff"/>
  </g>
</svg>
