<svg xmlns="http://www.w3.org/2000/svg" width="34.5" height="14.5" viewBox="0 0 34.5 14.5">
  <g id="menu" transform="translate(-40.25 -53.965)">
    <path id="Union_1" data-name="Union 1" d="M.954,14.5C.428,14.5,0,13.751,0,12.827s.428-1.673.954-1.673H18.766c.527,0,.954.75.954,1.673s-.427,1.673-.954,1.673ZM1.327,3.346A1.531,1.531,0,0,1,0,1.673,1.531,1.531,0,0,1,1.327,0H33.173A1.531,1.531,0,0,1,34.5,1.673a1.531,1.531,0,0,1-1.327,1.673Z" transform="translate(40.25 53.965)" fill="#b77d2f"/>
  </g>
</svg>
