<svg xmlns="http://www.w3.org/2000/svg" width="20" height="19.5" viewBox="0 0 20 19.5">
  <g id="music" transform="translate(-43.25 -479.465)">
    <path id="Union_10" data-name="Union 10" d="M-981.369,19.5A2.514,2.514,0,0,1-984,17.122a2.513,2.513,0,0,1,2.631-2.378h2.632V3.567a.732.732,0,0,1,.605-.693L-964.974.02a.853.853,0,0,1,.673.134.689.689,0,0,1,.3.56V15.172a2.565,2.565,0,0,1-2.685,2.425h-2.052a2.514,2.514,0,0,1-2.632-2.377,2.514,2.514,0,0,1,2.632-2.378h3.158V1.618l-11.579,2.511V17.074a2.565,2.565,0,0,1-2.684,2.426Zm-1.052-2.378a1.006,1.006,0,0,0,1.052.951h1.527a1.056,1.056,0,0,0,1.1-1v-.9h-2.632A1.006,1.006,0,0,0-982.421,17.122Zm12.632-1.9a1.006,1.006,0,0,0,1.052.951h2.052a1.056,1.056,0,0,0,1.106-1v-.9h-3.158A1,1,0,0,0-969.789,15.22Z" transform="translate(1027.25 479.465)" fill="#fff"/>
  </g>
</svg>
