<svg xmlns="http://www.w3.org/2000/svg" width="30.5" height="22.736" viewBox="0 0 30.5 22.736">
  <g id="rooms" transform="translate(-39 -406)">
    <path id="Union_12" data-name="Union 12" d="M-957.046,21.7V19.98h-23.408V21.7a1.049,1.049,0,0,1-1.063,1.033,1.049,1.049,0,0,1-1.064-1.033V19.98h-.355A1.049,1.049,0,0,1-984,18.947v-6.2a3.135,3.135,0,0,1,2.837-3.081V3.1A3.147,3.147,0,0,1-977.971,0h18.441a3.146,3.146,0,0,1,3.192,3.1V9.665a3.135,3.135,0,0,1,2.838,3.082v6.2a1.05,1.05,0,0,1-1.065,1.033h-.355V21.7a1.049,1.049,0,0,1-1.064,1.033A1.049,1.049,0,0,1-957.046,21.7Zm1.418-3.79V12.746a1.05,1.05,0,0,0-1.064-1.034h-24.116a1.051,1.051,0,0,0-1.065,1.034v5.167h26.245Zm-2.837-8.267V3.1a1.05,1.05,0,0,0-1.065-1.033h-18.441A1.049,1.049,0,0,0-979.034,3.1V9.646h3.546V9.3A3.147,3.147,0,0,1-972.3,6.2h7.094a3.147,3.147,0,0,1,3.192,3.1v.345Zm-5.675,0V9.3A1.049,1.049,0,0,0-965.2,8.268H-972.3A1.049,1.049,0,0,0-973.361,9.3v.345Z" transform="translate(1023 406)" fill="#fff"/>
  </g>
</svg>
