<svg xmlns="http://www.w3.org/2000/svg" width="21.285" height="22.721" viewBox="0 0 21.285 22.721">
  <g id="settings" transform="translate(-41.965 -550.279)">
    <path id="Union_4" data-name="Union 4" d="M-482.051,22.721a2.933,2.933,0,0,1-2.94-2.92,1.171,1.171,0,0,0-.167-.583,1.277,1.277,0,0,0-.777-.6,1.291,1.291,0,0,0-.963.128,3,3,0,0,1-2.255.269,2.958,2.958,0,0,1-1.765-1.392l-.69-1.181a2.9,2.9,0,0,1,1.071-3.975,1.277,1.277,0,0,0,.643-1.1,1.279,1.279,0,0,0-.643-1.105,2.915,2.915,0,0,1-1.072-3.983l.748-1.221a2.948,2.948,0,0,1,4-1.059,1.214,1.214,0,0,0,.609.172,1.283,1.283,0,0,0,1.273-1.256,2.874,2.874,0,0,1,.852-2.052A2.924,2.924,0,0,1-482.051,0h1.383a2.979,2.979,0,0,1,2.11.882A2.932,2.932,0,0,1-477.729,3a1.172,1.172,0,0,0,.167.56,1.279,1.279,0,0,0,.782.59,1.284,1.284,0,0,0,.965-.135A2.958,2.958,0,0,1-471.8,5.089l.688,1.183a1.017,1.017,0,0,1,.046.094,2.92,2.92,0,0,1-1.115,3.887,1.247,1.247,0,0,0-.468.462,1.279,1.279,0,0,0-.132.968,1.253,1.253,0,0,0,.6.771,2.934,2.934,0,0,1,1.37,1.772,2.911,2.911,0,0,1-.3,2.216l-.732,1.213a2.952,2.952,0,0,1-4,1.052,1.326,1.326,0,0,0-.616-.171h-.007a1.281,1.281,0,0,0-.885.371,1.252,1.252,0,0,0-.373.9,2.936,2.936,0,0,1-2.94,2.913Zm-3.455-5.693a2.943,2.943,0,0,1,1.778,1.361,2.8,2.8,0,0,1,.392,1.4,1.283,1.283,0,0,0,1.284,1.284h1.383a1.283,1.283,0,0,0,1.285-1.269,2.87,2.87,0,0,1,.857-2.064,2.893,2.893,0,0,1,2.086-.852,3.024,3.024,0,0,1,1.416.388,1.3,1.3,0,0,0,1.754-.462l.733-1.214a1.261,1.261,0,0,0,.123-.953,1.26,1.26,0,0,0-.593-.77,2.9,2.9,0,0,1-1.371-1.774,2.915,2.915,0,0,1,.3-2.215,2.9,2.9,0,0,1,1.072-1.062,1.274,1.274,0,0,0,.46-1.731.677.677,0,0,1-.039-.075l-.647-1.114a1.29,1.29,0,0,0-1.75-.471,2.9,2.9,0,0,1-2.214.3,2.9,2.9,0,0,1-1.79-1.345,2.782,2.782,0,0,1-.4-1.41,1.3,1.3,0,0,0-.364-.958,1.293,1.293,0,0,0-.922-.385h-1.383a1.279,1.279,0,0,0-.9.371,1.253,1.253,0,0,0-.37.9,2.945,2.945,0,0,1-2.939,2.894,2.865,2.865,0,0,1-1.433-.4,1.29,1.29,0,0,0-1.739.479l-.748,1.221a1.269,1.269,0,0,0,.477,1.721,2.929,2.929,0,0,1,1.468,2.528,2.925,2.925,0,0,1-1.47,2.528,1.263,1.263,0,0,0-.465,1.727l.7,1.193a1.292,1.292,0,0,0,.779.622,1.316,1.316,0,0,0,.98-.113,2.909,2.909,0,0,1,1.46-.388A2.943,2.943,0,0,1-485.506,17.027Zm.414-5.666a3.73,3.73,0,0,1,3.737-3.714,3.731,3.731,0,0,1,3.738,3.714,3.728,3.728,0,0,1-3.738,3.712A3.728,3.728,0,0,1-485.092,11.362Zm1.656,0a2.076,2.076,0,0,0,2.081,2.067,2.076,2.076,0,0,0,2.082-2.067,2.078,2.078,0,0,0-2.082-2.068A2.078,2.078,0,0,0-483.436,11.362Z" transform="translate(533.965 550.279)" fill="#fff"/>
  </g>
</svg>
