<svg xmlns="http://www.w3.org/2000/svg" width="30.799" height="26.783" viewBox="0 0 30.799 26.783">
  <g id="wether" transform="translate(-81.99 -554.764)">
    <path id="Subtraction_1" data-name="Subtraction 1" d="M-476.968,25.783h-12.139c-.03-.018-2.924-1.836-2.893-4.563a2.994,2.994,0,0,1,1.495-2.634,4.335,4.335,0,0,1,1.471-.552v-.005a6.491,6.491,0,0,1,.2-2.081,3.7,3.7,0,0,1,2.607-2.758,4.171,4.171,0,0,1,1.118-.162,3.971,3.971,0,0,1,3.384,2.4.185.185,0,0,1,.02-.021c.018-.018.047-.047.086-.084a8.007,8.007,0,0,0,4.313,4.806,7.76,7.76,0,0,0,3.173.673c.087,0,.178,0,.269,0a3.355,3.355,0,0,1,.1.357,3.585,3.585,0,0,1-1.363,3.358,8.528,8.528,0,0,1-1.838,1.273Z" transform="translate(573.99 555.764)" fill="#fff"/>
    <path id="Path_10782" data-name="Path 10782" d="M385.25,250.4c0-5.052,3.758-9.147,8.394-9.147a7.761,7.761,0,0,1,1.7.188.625.625,0,0,1,.467.608.633.633,0,0,1-.437.634A4.725,4.725,0,0,0,392.1,247.3a4.592,4.592,0,0,0,4.383,4.776,4.471,4.471,0,0,0,4.242-3.568.6.6,0,0,1,.582-.477.6.6,0,0,1,.558.509,9.977,9.977,0,0,1,.173,1.853c0,5.052-3.758,9.147-8.394,9.147S385.25,255.448,385.25,250.4Z" transform="matrix(0.914, 0.407, -0.407, 0.914, -156.366, 177.675)" fill="#fff" fill-rule="evenodd"/>
  </g>
</svg>
