<svg xmlns="http://www.w3.org/2000/svg" width="31.5" height="21.25" viewBox="0 0 31.5 21.25">
  <g id="Wifi" transform="translate(-62 -729)">
    <path id="Union_5" data-name="Union 5" d="M13.919,19.508a1.833,1.833,0,1,1,1.83,1.742A1.787,1.787,0,0,1,13.919,19.508Zm6.915-2.871a7.444,7.444,0,0,0-10.168,0,1.147,1.147,0,0,1-1.553,0,1.007,1.007,0,0,1,0-1.477,9.708,9.708,0,0,1,13.274,0,1.007,1.007,0,0,1,0,1.477,1.147,1.147,0,0,1-1.553,0Zm4.395-4.542a13.905,13.905,0,0,0-18.958,0,1.149,1.149,0,0,1-1.555,0,1.01,1.01,0,0,1,0-1.477,16.173,16.173,0,0,1,22.066,0,1.007,1.007,0,0,1,0,1.477,1.147,1.147,0,0,1-1.553,0Zm4.416-4.738A21,21,0,0,0,3.119,6.3c-.433.335-.854.683-1.263,1.06A1.149,1.149,0,0,1,.3,7.315,1.01,1.01,0,0,1,.343,5.838q.68-.606,1.4-1.171A23.3,23.3,0,0,1,31.157,5.838,1.009,1.009,0,0,1,31.2,7.315a1.122,1.122,0,0,1-.8.324A1.14,1.14,0,0,1,29.645,7.357Z" transform="translate(62 729)" fill="#b77d2f"/>
  </g>
</svg>
